Coordinates
version=1
nRows=27
nColumns=12
inDegrees=yes

Units are S.I. units (second, meters, Newtons, ...)
Angles are in degrees

endheader
time	SC_y	SC_z	SC_x	AC_y	AC_z	AC_x	GH_y	GH_z	GH_yy	EL_x	PS_y
       0.0              -13.77          37.47          20.79           43.4         -15.47         0.5032          125.1          75.18          83.48          24.95          123.3
   0.01852              -13.78          37.47          20.79           43.4         -15.47         0.5032          125.1          75.18          83.47          24.96          123.3
   0.03703              -13.78          37.47           20.8           43.4         -15.46         0.5032          125.0          75.17          83.47          24.98          123.3
   0.05555              -13.78          37.46           20.8          43.39         -15.46         0.5032          125.0          75.16          83.46           25.0          123.3
   0.07407              -13.78          37.46           20.8          43.39         -15.46         0.5032          125.0          75.15          83.46          25.02          123.3
   0.09258              -13.79          37.45           20.8          43.39         -15.46         0.5031          124.9          75.14          83.46          25.04          123.3
    0.1111              -13.79          37.45          20.81          43.39         -15.46         0.5031          124.9          75.12          83.45          25.06          123.3
    0.1296              -13.79          37.45          20.81          43.38         -15.46         0.5031          124.8          75.11          83.45          25.09          123.3
    0.1481              -13.79          37.44          20.81          43.38         -15.46          0.503          124.8           75.1          83.44          25.11          123.3
    0.1667               -13.8          37.43          20.82          43.38         -15.45          0.503          124.8          75.08          83.43          25.14          123.3
    0.1852               -13.8          37.43          20.82          43.38         -15.45          0.503          124.7          75.07          83.43          25.17          123.3
    0.2037              -13.81          37.42          20.82          43.37         -15.45         0.5029          124.6          75.05          83.42           25.2          123.3
    0.2222              -13.81          37.42          20.83          43.37         -15.45         0.5029          124.6          75.03          83.41          25.24          123.3
    0.2407              -13.81          37.41          20.83          43.37         -15.45         0.5029          124.5          75.02          83.41          25.27          123.4
    0.2592              -13.82           37.4          20.84          43.36         -15.44         0.5028          124.4           75.0           83.4          25.31          123.4
    0.2778              -13.83          37.39          20.84          43.36         -15.44         0.5028          124.4          74.97          83.39          25.36          123.4
    0.2963              -13.83          37.38          20.85          43.35         -15.44         0.5027          124.3          74.95          83.38          25.41          123.4
    0.3148              -13.84          37.37          20.86          43.35         -15.43         0.5026          124.2          74.92          83.37          25.46          123.4
    0.3333              -13.84          37.36          20.86          43.34         -15.43         0.5026          124.1          74.89          83.36          25.52          123.4
    0.3518              -13.85          37.35          20.87          43.34         -15.43         0.5025          124.0          74.86          83.34          25.58          123.4
    0.3703              -13.86          37.34          20.88          43.33         -15.42         0.5024          123.8          74.83          83.33          25.65          123.4
    0.3889              -13.87          37.32          20.89          43.32         -15.42         0.5023          123.7          74.79          83.31          25.72          123.5
    0.4074              -13.88          37.31           20.9          43.31         -15.41         0.5022          123.6          74.74           83.3           25.8          123.5
    0.4259              -13.89          37.29          20.91           43.3         -15.41         0.5021          123.4           74.7          83.28           25.9          123.5
    0.4444               -13.9          37.27          20.92          43.29          -15.4          0.502          123.2          74.65          83.26           26.0          123.5
    0.4629              -13.92          37.25          20.94          43.28         -15.39         0.5019          123.0          74.59          83.23          26.11          123.5
    0.4814              -13.93          37.22          20.95          43.27         -15.38         0.5017          122.8          74.52           83.2          26.24          123.6
